<svg width="600" height="800" viewBox="0 0 600 800" xmlns="http://www.w3.org/2000/svg">
  <defs>
    <style>
      .bg { fill: #121212; }
      .line-main { stroke: rgba(255, 255, 255, 0.1); stroke-width: 2; fill: none; }
      .line-branch { stroke: rgba(255, 255, 255, 0.2); stroke-width: 0.75; fill: none; }
      .line-io { stroke: #e84a5f; stroke-width: 1; fill: none; }
      .node { fill: rgba(255, 255, 255, 0.3); }
    </style>
  </defs>

  <rect class="bg" width="100%" height="100%" />

  <path class="line-main" d="M 290 0 V 800" />
  <path class="line-main" d="M 310 0 V 800" />

  <g id="branch-1">
    <path class="line-branch" d="M 290 150 H 220" />
    <path class="line-branch" d="M 290 152 H 220" />
    <path class="line-branch" d="M 290 154 H 150" /> <path class="line-branch" d="M 290 156 H 220" />
    <path class="line-io" d="M 290 158 H 50" />
    <path class="line-io" d="M 290 160 H 50" />
    <circle class="node" cx="290" cy="155" r="5" />
    <circle class="node" cx="50" cy="159" r="5" />
  </g>

  <g id="branch-2">
    <path class="line-branch" d="M 310 350 H 380" />
    <path class="line-branch" d="M 310 352 H 450" /> <path class="line-branch" d="M 310 354 H 380" />
    <path class="line-branch" d="M 310 356 H 380" />
    <path class="line-io" d="M 310 358 H 550" />
    <path class="line-io" d="M 310 360 H 550" />
    <circle class="node" cx="310" cy="355" r="5" />
    <circle class="node" cx="550" cy="359" r="5" />
  </g>

  <g id="branch-3">
    <path class="line-branch" d="M 290 550 H 220" />
    <path class="line-branch" d="M 290 552 H 220" />
    <path class="line-branch" d="M 290 554 H 220" />
    <path class="line-branch" d="M 290 556 H 180" /> <path class="line-io" d="M 290 558 H 50" />
    <path class="line-io" d="M 290 560 H 50" />
    <circle class="node" cx="290" cy="555" r="5" />
    <circle class="node" cx="50" cy="559" r="5" />
  </g>
  
  <g id="branch-4">
    <path class="line-branch" d="M 310 750 H 380" />
    <path class="line-branch" d="M 310 752 H 380" />
    <path class="line-branch" d="M 310 754 H 480" /> <path class="line-io" d="M 310 758 H 550" />
    <path class="line-io" d="M 310 760 H 550" />
    <circle class="node" cx="310" cy="755" r="5" />
    <circle class="node" cx="550" cy="759" r="5" />
  </g>

</svg>