<svg xmlns="http://www.w3.org/2000/svg" width="64" height="64" viewBox="0 0 24 24" fill="none" stroke-width="2" stroke-linecap="round" stroke-linejoin="round" class="lucide lucide-cctv-icon lucide-cctv">
  <defs>
    <linearGradient id="cctv-gradient" x1="0%" y1="0%" x2="100%" y2="100%">
      <stop offset="0%" style="stop-color:#9A8CFF;stop-opacity:1" />
      <stop offset="100%" style="stop-color:#E84A5F;stop-opacity:1" />
    </linearGradient>
  </defs>

  <path class="animated-path" d="M16.75 12h3.632a1 1 0 0 1 .894 1.447l-2.034 4.069a1 1 0 0 1-1.708.134l-2.124-2.97" stroke="url(#cctv-gradient)"/>
  <path class="animated-path" d="M17.106 9.053a1 1 0 0 1 .447 1.341l-3.106 6.211a1 1 0 0 1-1.342.447L3.61 12.3a2.92 2.92 0 0 1-1.3-3.91L3.69 5.6a2.92 2.92 0 0 1 3.92-1.3z" stroke="url(#cctv-gradient)"/>
  <path class="animated-path" d="M2 19h3.76a2 2 0 0 0 1.8-1.1L9 15" stroke="url(#cctv-gradient)"/>
  <path class="animated-path" d="M2 21v-4" stroke="url(#cctv-gradient)"/>
  
  <circle cx="7" cy="9" r="0.5" fill="url(#cctv-gradient)" stroke="url(#cctv-gradient)">
      <animate attributeName="r" values="0.5; 1.5; 0.5" dur="2s" repeatCount="indefinite" />
      <animate attributeName="opacity" values="0; 1; 0" dur="2s" repeatCount="indefinite" />
  </circle>
</svg>