<svg xmlns="http://www.w3.org/2000/svg" width="64" height="64" viewBox="0 0 24 24" fill="none" stroke-width="2" stroke-linecap="round" stroke-linejoin="round" class="lucide lucide-shield-check-icon lucide-shield-check">
  <defs>
    <linearGradient id="shield-gradient" x1="0%" y1="0%" x2="100%" y2="100%">
      <stop offset="0%" style="stop-color:#9A8CFF;stop-opacity:1" />
      <stop offset="100%" style="stop-color:#E84A5F;stop-opacity:1" />
    </linearGradient>
  </defs>

  <style>
    .animated-path {
      stroke-dasharray: 1000;
      stroke-dashoffset: 1000;
      animation: draw-shield 2s linear infinite;
    }

    @keyframes draw-shield {
      to {
        stroke-dashoffset: 0;
      }
    }
  </style>

  <path class="animated-path" d="M20 13c0 5-3.5 7.5-7.66 8.95a1 1 0 0 1-.67-.01C7.5 20.5 4 18 4 13V6a1 1 0 0 1 1-1c2 0 4.5-1.2 6.24-2.72a1.17 1.17 0 0 1 1.52 0C14.51 3.81 17 5 19 5a1 1 0 0 1 1 1z" stroke="url(#shield-gradient)"/>
  <path class="animated-path" d="m9 12 2 2 4-4" stroke="url(#shield-gradient)" style="animation-delay: 1s;"/>
</svg>